<?xml version="1.0" encoding="UTF-8" standalone="no"?>
<!DOCTYPE svg PUBLIC "-//W3C//DTD SVG 1.1//EN" "http://www.w3.org/Graphics/SVG/1.1/DTD/svg11.dtd">
<svg width="100%" height="100%" viewBox="0 0 2048 512" version="1.1" xmlns="http://www.w3.org/2000/svg" xmlns:xlink="http://www.w3.org/1999/xlink" xml:space="preserve" xmlns:serif="http://www.serif.com/" style="fill-rule:evenodd;clip-rule:evenodd;stroke-linecap:round;stroke-linejoin:round;stroke-miterlimit:1.5;">
    <g id="Nimporter.afdesign" transform="matrix(0.1875,0,0,0.1875,256,256)">
        <g transform="matrix(1,0,0,1,-1024,-1024)">
            <clipPath id="_clip1">
                <rect x="0" y="0" width="2048" height="2048"/>
            </clipPath>
            <g clip-path="url(#_clip1)">
                <g id="Background">
                    <g transform="matrix(1.55214,0,0,1.55214,-1008.8,-821.39)">
                        <path d="M738.327,1188.93L738.327,859.066L1024,694.133L1309.67,859.066L1309.67,1188.93L1024,1024L738.327,1188.93Z" style="fill:rgb(58,19,83);stroke:black;stroke-width:0.28px;"/>
                    </g>
                    <g transform="matrix(0.77607,-1.34419,1.34419,0.77607,-1590.55,1861.76)">
                        <path d="M738.327,1188.93L738.327,859.066L1024,694.133L1309.67,859.066L1309.67,1188.93L1024,1024L738.327,1188.93Z" style="fill:rgb(88,29,127);stroke:black;stroke-width:0.28px;"/>
                    </g>
                    <g transform="matrix(-0.77607,-1.34419,1.34419,-0.77607,442.243,3707.15)">
                        <path d="M738.327,1188.93L738.327,859.066L1024,694.133L1309.67,859.066L1309.67,1188.93L1024,1024L738.327,1188.93Z" style="fill:rgb(135,46,147);stroke:black;stroke-width:0.28px;"/>
                    </g>
                    <g transform="matrix(-1.55214,8.6161e-17,-8.6161e-17,-1.55214,3056.8,2869.39)">
                        <path d="M738.327,1188.93L738.327,859.066L1024,694.133L1309.67,859.066L1309.67,1188.93L1024,1024L738.327,1188.93Z" style="fill:rgb(200,72,138);stroke:black;stroke-width:0.28px;"/>
                    </g>
                    <g transform="matrix(-0.77607,1.34419,-1.34419,-0.77607,3638.55,186.243)">
                        <path d="M738.327,1188.93L738.327,859.066L1024,694.133L1309.67,859.066L1309.67,1188.93L1024,1024L738.327,1188.93Z" style="fill:rgb(235,117,144);stroke:black;stroke-width:0.28px;"/>
                    </g>
                    <g transform="matrix(0.77607,1.34419,-1.34419,0.77607,1605.76,-1659.15)">
                        <path d="M738.327,1188.93L738.327,859.066L1024,694.133L1309.67,859.066L1309.67,1188.93L1024,1024L738.327,1188.93Z" style="fill:rgb(246,181,164);stroke:black;stroke-width:0.28px;"/>
                    </g>
                </g>
                <g id="Flower">
                    <g transform="matrix(1.43274,0,0,1.91033,-852.427,-1247.25)">
                        <path d="M738.327,1188.93L738.327,859.066L1024,694.133L1309.67,859.066L1309.67,1188.93L1024,1024L738.327,1188.93Z" style="fill:url(#_Radial2);"/>
                    </g>
                    <g transform="matrix(0.716372,-1.24079,1.65439,0.955163,-1881.17,1513.41)">
                        <path d="M738.327,1188.93L738.327,859.066L1024,694.133L1309.67,859.066L1309.67,1188.93L1024,1024L738.327,1188.93Z" style="fill:url(#_Radial3);"/>
                    </g>
                    <g transform="matrix(-0.716372,-1.24079,1.65439,-0.955163,-4.74673,3784.66)">
                        <path d="M738.327,1188.93L738.327,859.066L1024,694.133L1309.67,859.066L1309.67,1188.93L1024,1024L738.327,1188.93Z" style="fill:url(#_Radial4);"/>
                    </g>
                    <g transform="matrix(-1.43274,4.75575e-17,-1.3802e-16,-1.91033,2900.43,3295.25)">
                        <path d="M738.327,1188.93L738.327,859.066L1024,694.133L1309.67,859.066L1309.67,1188.93L1024,1024L738.327,1188.93Z" style="fill:url(#_Radial5);"/>
                    </g>
                    <g transform="matrix(-0.716372,1.24079,-1.65439,-0.955163,3929.17,534.592)">
                        <path d="M738.327,1188.93L738.327,859.066L1024,694.133L1309.67,859.066L1309.67,1188.93L1024,1024L738.327,1188.93Z" style="fill:url(#_Radial6);"/>
                    </g>
                    <g transform="matrix(0.716372,1.24079,-1.65439,0.955163,2052.75,-1736.66)">
                        <path d="M738.327,1082.9L738.327,859.066L1024,694.133L1309.67,859.066L1309.67,1188.93L1024,1024L983.19,1047.56L928.776,1024L738.327,1082.9Z" style="fill:url(#_Radial7);"/>
                    </g>
                </g>
            </g>
        </g>
    </g>
    <g transform="matrix(1.18883,0,0,1.17326,-330.969,24.9918)">
        <path d="M762.909,256L762.909,96.867L766.774,96.867L885.896,250.771L883.395,250.771L883.395,96.867L887.942,96.867L887.942,256L884.077,256L764.955,102.096L767.456,102.096L767.456,256L762.909,256Z" style="fill:url(#_Linear8);fill-rule:nonzero;"/>
        <path d="M944.32,256L944.32,138.469L948.867,138.469L948.867,256L944.32,256ZM946.593,105.961C945.078,105.961 943.714,105.354 942.501,104.142C941.289,102.93 940.683,101.566 940.683,100.05C940.683,98.383 941.289,96.981 942.501,95.844C943.714,94.708 945.078,94.139 946.593,94.139C948.261,94.139 949.662,94.708 950.799,95.844C951.936,96.981 952.504,98.383 952.504,100.05C952.504,101.566 951.936,102.93 950.799,104.142C949.662,105.354 948.261,105.961 946.593,105.961Z" style="fill:url(#_Linear9);fill-rule:nonzero;"/>
        <path d="M1147.33,137.787C1156.72,137.787 1164.83,139.644 1171.65,143.357C1178.47,147.07 1183.74,152.564 1187.45,159.838C1191.16,167.113 1193.02,176.055 1193.02,186.664L1193.02,256L1188.48,256L1188.48,186.664C1188.48,172.114 1184.88,161.051 1177.68,153.473C1170.48,145.895 1160.44,142.106 1147.56,142.106C1137.55,142.106 1128.95,144.19 1121.75,148.358C1114.55,152.526 1109.02,158.361 1105.16,165.863C1101.29,173.365 1099.36,182.117 1099.36,192.12L1099.36,256L1094.81,256L1094.81,186.664C1094.81,172.114 1091.21,161.051 1084.02,153.473C1076.82,145.895 1066.78,142.106 1053.89,142.106C1043.89,142.106 1035.29,144.19 1028.09,148.358C1020.89,152.526 1015.36,158.361 1011.5,165.863C1007.63,173.365 1005.7,182.117 1005.7,192.12L1005.7,256L1001.15,256L1001.15,138.469L1005.7,138.469L1005.7,171.66L1005.25,170.978C1008.58,160.824 1014.41,152.753 1022.75,146.767C1031.09,140.78 1041.39,137.787 1053.67,137.787C1065.79,137.787 1075.79,140.856 1083.67,146.994C1091.56,153.132 1096.48,162.263 1098.45,174.388L1097.77,174.16C1100.65,163.4 1106.37,154.648 1114.93,147.903C1123.5,141.159 1134.29,137.787 1147.33,137.787Z" style="fill:url(#_Linear10);fill-rule:nonzero;"/>
        <path d="M1301.01,256.682C1290.24,256.682 1280.62,254.143 1272.13,249.066C1263.65,243.989 1256.94,236.98 1252.02,228.038C1247.09,219.096 1244.63,208.866 1244.63,197.348C1244.63,185.679 1247.09,175.373 1252.02,166.431C1256.94,157.489 1263.65,150.48 1272.13,145.403C1280.62,140.326 1290.24,137.787 1301.01,137.787C1311.77,137.787 1321.46,140.326 1330.1,145.403C1338.74,150.48 1345.56,157.489 1350.56,166.431C1355.56,175.373 1358.07,185.679 1358.07,197.348C1358.07,208.866 1355.56,219.096 1350.56,228.038C1345.56,236.98 1338.74,243.989 1330.1,249.066C1321.46,254.143 1311.77,256.682 1301.01,256.682ZM1243.94,300.102L1243.94,138.469L1248.49,138.469L1248.49,181.662L1246.22,197.576L1248.49,213.489L1248.49,300.102L1243.94,300.102ZM1301.01,252.363C1311.01,252.363 1319.99,250.051 1327.94,245.429C1335.9,240.807 1342.15,234.328 1346.7,225.992C1351.25,217.657 1353.52,208.109 1353.52,197.348C1353.52,186.436 1351.25,176.85 1346.7,168.591C1342.15,160.331 1335.9,153.852 1327.94,149.154C1319.99,144.456 1311.01,142.106 1301.01,142.106C1291,142.106 1282.02,144.456 1274.07,149.154C1266.11,153.852 1259.86,160.331 1255.31,168.591C1250.76,176.85 1248.49,186.436 1248.49,197.348C1248.49,208.109 1250.76,217.657 1255.31,225.992C1259.86,234.328 1266.11,240.807 1274.07,245.429C1282.02,250.051 1291,252.363 1301.01,252.363Z" style="fill:url(#_Linear11);fill-rule:nonzero;"/>
        <path d="M1439.68,256.682C1428.77,256.682 1419.03,254.143 1410.46,249.066C1401.9,243.989 1395.12,236.942 1390.12,227.924C1385.12,218.907 1382.62,208.639 1382.62,197.121C1382.62,185.451 1385.12,175.183 1390.12,166.317C1395.12,157.451 1401.9,150.48 1410.46,145.403C1419.03,140.326 1428.77,137.787 1439.68,137.787C1450.59,137.787 1460.37,140.326 1469,145.403C1477.64,150.48 1484.42,157.451 1489.35,166.317C1494.28,175.183 1496.74,185.451 1496.74,197.121C1496.74,208.639 1494.28,218.907 1489.35,227.924C1484.42,236.942 1477.64,243.989 1469,249.066C1460.37,254.143 1450.59,256.682 1439.68,256.682ZM1439.68,252.363C1449.68,252.363 1458.66,250.014 1466.62,245.315C1474.57,240.617 1480.83,234.1 1485.37,225.765C1489.92,217.429 1492.19,207.881 1492.19,197.121C1492.19,186.209 1489.92,176.623 1485.37,168.363C1480.83,160.104 1474.57,153.663 1466.62,149.04C1458.66,144.418 1449.68,142.106 1439.68,142.106C1429.67,142.106 1420.73,144.418 1412.85,149.04C1404.97,153.663 1398.72,160.104 1394.1,168.363C1389.48,176.623 1387.16,186.209 1387.16,197.121C1387.16,207.881 1389.48,217.429 1394.1,225.765C1398.72,234.1 1404.97,240.617 1412.85,245.315C1420.73,250.014 1429.67,252.363 1439.68,252.363Z" style="fill:url(#_Linear12);fill-rule:nonzero;"/>
        <path d="M1535.16,256L1535.16,138.469L1539.7,138.469L1539.7,170.978L1539.25,170.296C1542.43,159.99 1548,151.995 1555.96,146.312C1563.91,140.629 1573.88,137.787 1585.85,137.787L1585.85,142.334L1584.49,142.334C1570.39,142.334 1559.41,146.843 1551.53,155.86C1543.64,164.878 1539.7,177.191 1539.7,192.802L1539.7,256L1535.16,256Z" style="fill:url(#_Linear13);fill-rule:nonzero;"/>
        <path d="M1655.87,256.682C1646.63,256.682 1639.58,254.03 1634.73,248.725C1629.88,243.421 1627.45,236.449 1627.45,227.811L1627.45,112.781L1632,112.781L1632,226.674C1632,235.01 1634.05,241.375 1638.14,245.77C1642.23,250.165 1648.22,252.363 1656.1,252.363C1663.98,252.363 1670.5,249.938 1675.65,245.088L1678.83,248.271C1676.1,251.15 1672.65,253.272 1668.49,254.636C1664.32,256 1660.11,256.682 1655.87,256.682ZM1604.72,142.788L1604.72,138.469L1671.78,138.469L1671.78,142.788L1604.72,142.788Z" style="fill:url(#_Linear14);fill-rule:nonzero;"/>
        <path d="M1754.08,256.682C1742.71,256.682 1732.63,254.143 1723.84,249.066C1715.05,243.989 1708.12,236.942 1703.04,227.924C1697.97,218.907 1695.43,208.639 1695.43,197.121C1695.43,185.451 1697.78,175.183 1702.47,166.317C1707.17,157.451 1713.65,150.48 1721.91,145.403C1730.17,140.326 1739.45,137.787 1749.76,137.787C1760.06,137.787 1769.35,140.25 1777.61,145.175C1785.87,150.101 1792.38,156.959 1797.16,165.749C1801.93,174.539 1804.32,184.618 1804.32,195.984L1804.32,197.121L1697.93,197.121L1697.93,192.802L1801.82,192.802L1800,196.212C1800,185.906 1797.8,176.661 1793.41,168.477C1789.01,160.293 1783.06,153.852 1775.56,149.154C1768.06,144.456 1759.46,142.106 1749.76,142.106C1740.21,142.106 1731.65,144.456 1724.07,149.154C1716.49,153.852 1710.54,160.293 1706.23,168.477C1701.9,176.661 1699.75,185.906 1699.75,196.212L1699.75,197.121C1699.75,207.881 1702.1,217.429 1706.79,225.765C1711.49,234.1 1717.93,240.617 1726.12,245.315C1734.3,250.014 1743.62,252.363 1754.08,252.363C1761.96,252.363 1769.42,250.847 1776.47,247.816C1783.52,244.785 1789.39,240.238 1794.09,234.176L1797.27,237.359C1792.12,243.724 1785.75,248.536 1778.17,251.794C1770.6,255.053 1762.57,256.682 1754.08,256.682Z" style="fill:url(#_Linear15);fill-rule:nonzero;"/>
        <path d="M1842.74,256L1842.74,138.469L1847.28,138.469L1847.28,170.978L1846.83,170.296C1850.01,159.99 1855.58,151.995 1863.54,146.312C1871.5,140.629 1881.46,137.787 1893.43,137.787L1893.43,142.334L1892.07,142.334C1877.97,142.334 1866.99,146.843 1859.11,155.86C1851.23,164.878 1847.28,177.191 1847.28,192.802L1847.28,256L1842.74,256Z" style="fill:url(#_Linear16);fill-rule:nonzero;"/>
    </g>
    <defs>
        <radialGradient id="_Radial2" cx="0" cy="0" r="1" gradientUnits="userSpaceOnUse" gradientTransform="matrix(5.15233e-13,-329.867,439.823,3.86425e-13,1024,1024)"><stop offset="0" style="stop-color:rgb(58,19,83);stop-opacity:1"/><stop offset="1" style="stop-color:white;stop-opacity:1"/></radialGradient>
        <radialGradient id="_Radial3" cx="0" cy="0" r="1" gradientUnits="userSpaceOnUse" gradientTransform="matrix(-1.13687e-13,-329.867,439.823,-5.68434e-14,1024,1024)"><stop offset="0" style="stop-color:rgb(88,29,127);stop-opacity:1"/><stop offset="1" style="stop-color:white;stop-opacity:1"/></radialGradient>
        <radialGradient id="_Radial4" cx="0" cy="0" r="1" gradientUnits="userSpaceOnUse" gradientTransform="matrix(1.13687e-13,-329.867,439.823,8.52651e-14,1024,1024)"><stop offset="0" style="stop-color:rgb(135,46,147);stop-opacity:1"/><stop offset="1" style="stop-color:white;stop-opacity:1"/></radialGradient>
        <radialGradient id="_Radial5" cx="0" cy="0" r="1" gradientUnits="userSpaceOnUse" gradientTransform="matrix(4.84562e-15,-329.867,439.823,-9.24916e-15,1024,1024)"><stop offset="0" style="stop-color:rgb(200,72,138);stop-opacity:1"/><stop offset="0.48" style="stop-color:rgb(215,121,169);stop-opacity:1"/><stop offset="1" style="stop-color:white;stop-opacity:1"/></radialGradient>
        <radialGradient id="_Radial6" cx="0" cy="0" r="1" gradientUnits="userSpaceOnUse" gradientTransform="matrix(-3.41061e-13,-329.867,439.823,-2.27374e-13,1024,1024)"><stop offset="0" style="stop-color:rgb(235,117,144);stop-opacity:1"/><stop offset="0.48" style="stop-color:rgb(240,154,174);stop-opacity:1"/><stop offset="1" style="stop-color:white;stop-opacity:1"/></radialGradient>
        <radialGradient id="_Radial7" cx="0" cy="0" r="1" gradientUnits="userSpaceOnUse" gradientTransform="matrix(-2.55795e-13,-329.867,439.823,-1.42109e-13,1024,1024)"><stop offset="0" style="stop-color:rgb(246,181,164);stop-opacity:1"/><stop offset="0.48" style="stop-color:rgb(248,201,188);stop-opacity:1"/><stop offset="1" style="stop-color:white;stop-opacity:1"/></radialGradient>
        <linearGradient id="_Linear8" x1="0" y1="0" x2="1" y2="0" gradientUnits="userSpaceOnUse" gradientTransform="matrix(-1.48585e-13,-393.245,388.097,-1.50557e-13,1328.17,415.088)"><stop offset="0" style="stop-color:rgb(246,184,168);stop-opacity:1"/><stop offset="1" style="stop-color:rgb(88,29,127);stop-opacity:1"/></linearGradient>
        <linearGradient id="_Linear9" x1="0" y1="0" x2="1" y2="0" gradientUnits="userSpaceOnUse" gradientTransform="matrix(-1.48585e-13,-393.245,388.097,-1.50557e-13,1328.17,415.088)"><stop offset="0" style="stop-color:rgb(246,184,168);stop-opacity:1"/><stop offset="1" style="stop-color:rgb(88,29,127);stop-opacity:1"/></linearGradient>
        <linearGradient id="_Linear10" x1="0" y1="0" x2="1" y2="0" gradientUnits="userSpaceOnUse" gradientTransform="matrix(-1.48585e-13,-393.245,388.097,-1.50557e-13,1328.17,415.088)"><stop offset="0" style="stop-color:rgb(246,184,168);stop-opacity:1"/><stop offset="1" style="stop-color:rgb(88,29,127);stop-opacity:1"/></linearGradient>
        <linearGradient id="_Linear11" x1="0" y1="0" x2="1" y2="0" gradientUnits="userSpaceOnUse" gradientTransform="matrix(-1.48585e-13,-393.245,388.097,-1.50557e-13,1328.17,415.088)"><stop offset="0" style="stop-color:rgb(246,184,168);stop-opacity:1"/><stop offset="1" style="stop-color:rgb(88,29,127);stop-opacity:1"/></linearGradient>
        <linearGradient id="_Linear12" x1="0" y1="0" x2="1" y2="0" gradientUnits="userSpaceOnUse" gradientTransform="matrix(-1.48585e-13,-393.245,388.097,-1.50557e-13,1328.17,415.088)"><stop offset="0" style="stop-color:rgb(246,184,168);stop-opacity:1"/><stop offset="1" style="stop-color:rgb(88,29,127);stop-opacity:1"/></linearGradient>
        <linearGradient id="_Linear13" x1="0" y1="0" x2="1" y2="0" gradientUnits="userSpaceOnUse" gradientTransform="matrix(-1.48585e-13,-393.245,388.097,-1.50557e-13,1328.17,415.088)"><stop offset="0" style="stop-color:rgb(246,184,168);stop-opacity:1"/><stop offset="1" style="stop-color:rgb(88,29,127);stop-opacity:1"/></linearGradient>
        <linearGradient id="_Linear14" x1="0" y1="0" x2="1" y2="0" gradientUnits="userSpaceOnUse" gradientTransform="matrix(-1.48585e-13,-393.245,388.097,-1.50557e-13,1328.17,415.088)"><stop offset="0" style="stop-color:rgb(246,184,168);stop-opacity:1"/><stop offset="1" style="stop-color:rgb(88,29,127);stop-opacity:1"/></linearGradient>
        <linearGradient id="_Linear15" x1="0" y1="0" x2="1" y2="0" gradientUnits="userSpaceOnUse" gradientTransform="matrix(-1.48585e-13,-393.245,388.097,-1.50557e-13,1328.17,415.088)"><stop offset="0" style="stop-color:rgb(246,184,168);stop-opacity:1"/><stop offset="1" style="stop-color:rgb(88,29,127);stop-opacity:1"/></linearGradient>
        <linearGradient id="_Linear16" x1="0" y1="0" x2="1" y2="0" gradientUnits="userSpaceOnUse" gradientTransform="matrix(-1.48585e-13,-393.245,388.097,-1.50557e-13,1328.17,415.088)"><stop offset="0" style="stop-color:rgb(246,184,168);stop-opacity:1"/><stop offset="1" style="stop-color:rgb(88,29,127);stop-opacity:1"/></linearGradient>
    </defs>
</svg>
